<svg viewBox="0 0 85 85" fill="currentColor" xmlns="http://www.w3.org/2000/svg">
<path d="M49.1659 5.06389C50.0079 4.88791 50.8386 4.66168 51.6536 4.3864C50.6682 3.36671 49.5589 2.47447 48.3518 1.73052C48.6582 2.77605 48.9286 3.89368 49.1659 5.06389ZM37.2641 1.40755C35.9632 2.11509 34.7104 3.07649 33.5221 4.26923C34.3453 4.56816 35.2932 4.84006 36.3553 5.06239C36.5988 3.83011 36.9021 2.6104 37.2641 1.40755ZM37.7343 24.8402C39.2425 25.0761 40.9264 25.2203 42.7621 25.2203C44.5978 25.2203 46.2802 25.0761 47.7884 24.8402C47.7862 22.5048 47.7276 20.1697 47.6127 17.837C44.3898 18.2207 41.1329 18.2207 37.91 17.837C37.7936 20.1696 37.735 22.5047 37.7343 24.8402ZM28.4718 11.4317C29.5368 12.5148 31.8517 13.6339 35.137 14.3504C35.2982 12.2359 35.5327 10.1275 35.84 8.02921C34.2236 7.70174 32.732 7.25258 31.4416 6.68625C30.3206 8.18216 29.3271 9.76955 28.4718 11.4317ZM46.7053 37.008C46.9772 36.0691 47.2491 35.1257 47.5331 34.2289C47.6472 32.234 47.7268 30.1189 47.7629 27.8792C46.1052 28.1075 44.4339 28.2225 42.7606 28.2232C41.0691 28.2232 39.3777 28.103 37.7568 27.8792C37.8064 31.0127 37.9416 33.9045 38.1399 36.5588L38.2465 36.9299C39.6225 37.1207 41.1277 37.2363 42.7591 37.2363C44.0779 37.2392 45.3957 37.163 46.7053 37.008ZM42.7275 56.5335C43.4162 50.9982 44.4619 45.5133 45.8581 40.113C44.8366 40.1971 43.7986 40.2422 42.7606 40.2422C41.5393 40.2422 40.3195 40.1761 39.1238 40.0589C40.3946 44.8945 41.4462 50.2153 42.2048 56.0332C42.3896 56.2781 42.5653 56.4584 42.7275 56.5335ZM53.7386 6.83948C52.5293 7.3352 51.1548 7.73178 49.6812 8.02921C49.9885 10.1275 50.223 12.2359 50.3842 14.3504C53.3811 13.697 55.5698 12.7085 56.74 11.7186C55.8783 10.0108 54.8743 8.37869 53.7386 6.83948ZM38.0978 14.8462C39.5324 15.0189 41.0902 15.1196 42.7621 15.1196C44.3204 15.1216 45.8775 15.0303 47.4249 14.8462C47.2657 12.7165 47.0237 10.5937 46.6993 8.48288C45.409 8.61957 44.0855 8.69619 42.7621 8.69619C41.4387 8.69619 40.1152 8.62108 38.8234 8.48288C38.499 10.5937 38.257 12.7165 38.0978 14.8462ZM46.1691 5.51605C45.6733 3.16512 45.1205 1.4406 44.5903 0.211809C43.9131 0.0721666 43.2236 0.00120448 42.5323 0C42.0035 0 41.4807 0.0540788 40.9625 0.135197C40.4232 1.36699 39.8569 3.11855 39.3506 5.51605C41.6174 5.74945 43.9022 5.74945 46.1691 5.51605ZM34.7299 24.1838C34.7468 21.9067 34.816 19.6303 34.9372 17.3563C32.7725 16.9147 30.7851 16.2823 29.1507 15.4711C30.7159 18.1563 32.1375 20.9227 33.4095 23.7587C33.815 23.9089 34.2612 24.0501 34.7299 24.1838ZM51.3922 24.0035C52.6039 21.2551 53.9588 18.572 55.4511 15.9653L55.5142 15.8601C54.0586 16.4866 52.3851 16.9898 50.5825 17.3578C50.7267 20.0272 50.7778 22.4172 50.7898 24.1853C50.9971 24.1252 51.1984 24.0651 51.3922 24.0035ZM26.9876 14.5938C26.7547 14.2167 26.5219 13.8397 26.2891 13.4762C25.909 12.8851 25.5209 12.2992 25.1249 11.7186C21.5572 6.50299 18.1397 2.95631 15.7572 0.817192C19.5022 9.22346 21.2312 26.0345 22.0048 37.5503C22.445 44.1088 22.5756 48.9564 22.5907 49.5408C23.187 58.8198 24.7704 65.6623 26.7983 70.7262C27.3541 72.1127 27.94 73.3685 28.5514 74.4982C28.5844 74.5598 28.616 74.6259 28.649 74.686C28.67 74.7265 28.6926 74.7641 28.7151 74.8031C33.468 83.3746 39.4963 84.7717 41.7151 84.9865C41.4402 78.7479 41.4672 72.9044 41.7586 67.4664C41.6023 64.6333 41.3669 61.805 41.0526 58.985C40.267 51.8421 39.0442 45.4818 37.554 39.8667C37.2696 38.794 36.9686 37.7258 36.6512 36.6625C36.0988 34.7835 35.4946 32.9201 34.8395 31.0743C34.3311 29.6648 33.7896 28.2674 33.2157 26.8832C32.6538 25.516 32.0587 24.1626 31.4311 22.8243C30.4774 20.7786 29.441 18.7726 28.3245 16.811C27.8784 16.0374 27.4322 15.3148 26.9876 14.5938ZM46.7579 42.7509C45.9891 45.9661 45.3472 49.2103 44.8336 52.4761C44.4737 54.7459 44.1707 57.0245 43.9248 59.3095C43.6394 61.9564 43.4156 64.7054 43.2623 67.5596C42.9565 73.3686 42.937 79.1891 43.2037 85L43.3089 84.9895C46.8901 84.6425 60.3978 81.2205 62.4333 49.5122C62.4468 48.9294 62.582 43.9301 63.0402 37.2003C63.8228 25.725 65.5488 9.20543 69.2427 0.868266C67.033 2.8782 63.94 6.1034 60.6517 10.7662C59.8377 11.9214 59.0567 13.0996 58.3098 14.2994C58.2392 14.4135 58.1671 14.5217 58.0965 14.6389C56.4096 17.3856 54.8809 20.2263 53.5178 23.1473C52.9379 24.3851 52.3716 25.686 51.8143 27.0319C50.0854 31.2355 48.6327 35.5475 47.4655 39.9403C47.2206 40.8566 46.9863 41.7985 46.7579 42.7509Z"/>
</svg>
