<svg viewBox="0 0 85 85" fill="currentColor" xmlns="http://www.w3.org/2000/svg">
<path d="M60.3287 0H24.7137C9.24368 0 0.0211792 9.2225 0.0211792 24.6925V60.265C0.0211792 75.7775 9.24368 85 24.7137 85H60.2862C75.7562 85 84.9787 75.7775 84.9787 60.3075V24.6925C85.0212 9.2225 75.7987 0 60.3287 0ZM56.8012 52.275C58.0337 53.5075 58.0337 55.5475 56.8012 56.78C56.1637 57.4175 55.3562 57.715 54.5487 57.715C53.7412 57.715 52.9337 57.4175 52.2962 56.78L42.5212 47.005L32.7462 56.78C32.1087 57.4175 31.3012 57.715 30.4937 57.715C29.6862 57.715 28.8787 57.4175 28.2412 56.78C27.0087 55.5475 27.0087 53.5075 28.2412 52.275L38.0162 42.5L28.2412 32.725C27.0087 31.4925 27.0087 29.4525 28.2412 28.22C29.4737 26.9875 31.5137 26.9875 32.7462 28.22L42.5212 37.995L52.2962 28.22C53.5287 26.9875 55.5687 26.9875 56.8012 28.22C58.0337 29.4525 58.0337 31.4925 56.8012 32.725L47.0262 42.5L56.8012 52.275Z"/>
</svg>
