<svg viewBox="0 0 85 85" fill="currentColor" xmlns="http://www.w3.org/2000/svg">
<path d="M79.6875 26.5625H58.4375V5.3125C58.4375 2.37717 56.0603 0 53.125 0H31.875C28.9397 0 26.5625 2.38 26.5625 5.3125V26.5625H5.3125C2.37717 26.5625 0 28.9425 0 31.875V53.125C0 56.0603 2.38 58.4375 5.3125 58.4375H26.5625V79.6875C26.5625 82.6228 28.9425 85 31.875 85H53.125C56.0603 85 58.4375 82.62 58.4375 79.6875V58.4375H79.6875C82.62 58.4375 85 56.0603 85 53.125V31.875C85 28.9397 82.62 26.5625 79.6875 26.5625Z"/>
</svg>
