<svg viewBox="0 0 85 85" fill="currentColor" xmlns="http://www.w3.org/2000/svg">
<path d="M42.066 0.0759135C23.7229 -1.05283 8.27819 10.4866 8.62749 29.2878L8.61354 30.9895L0.644298 45.0621C0.215646 45.8203 0.177463 46.7384 0.542531 47.5318C0.904611 48.3253 1.62744 48.8953 2.48192 49.0621L7.40694 50.4215L8.95288 65.3456C8.99538 66.7826 9.6347 68.135 10.7183 69.0826C11.8032 70.0246 13.2361 70.4731 14.6646 70.3131L18.5982 70.6272C19.3649 70.541 20.1345 70.7856 20.7086 71.3006C21.2843 71.8169 21.6126 72.5537 21.6126 73.326V85H54.8852C54.8852 85 54.8852 79.3661 54.8852 77.0973C54.8852 74.8286 55.6675 69.6417 57.1555 67.2682C62.549 58.644 71.3301 54.0555 72.8109 36.3661C74.292 18.6793 63.7357 1.41118 42.066 0.0759135ZM65.0017 32.9682C63.3695 32.9682 61.665 32.9682 61.665 32.9682C60.8532 32.9669 60.1939 32.3078 60.1924 31.4959V29.4406C60.1924 28.688 59.58 28.0756 58.8274 28.0756C58.0736 28.0756 57.4611 28.688 57.4611 29.4406V31.4959C57.4625 33.8184 59.3437 35.6984 61.665 35.6997C61.6691 35.6997 63.0569 35.6997 64.5279 35.6997C62.9592 42.1736 58.638 44.6122 54.3055 42.1652C51.4821 40.5683 51.7225 38.1848 50.4058 36.2074V28.985C50.4058 28.2325 49.7932 27.6201 49.0393 27.6201C48.2854 27.6201 47.6743 28.2326 47.6743 28.985V34.0658C45.7139 33.2257 42.5921 32.6867 37.3797 32.6867C35.9681 32.6867 34.6654 32.6754 33.4503 32.6526V27.166C33.4503 26.4106 32.8379 25.7995 32.084 25.7995C31.3299 25.7995 30.719 26.4106 30.719 27.166V32.5778C19.6733 32.1478 18.0495 30.3726 17.1811 25.9086C17.1457 25.6426 17.1203 25.3797 17.0976 25.1179H22.8955C25.6452 25.1179 27.8745 22.8886 27.8745 20.1404V17.9903C27.8745 17.2364 27.2622 16.6253 26.508 16.6253C25.7541 16.6253 25.1432 17.2364 25.1432 17.9903V20.1404C25.1404 21.3809 24.1362 22.3853 22.8955 22.3879H17.0905C17.4243 18.5886 19.2193 15.4825 22.0087 12.6421C24.1403 10.468 26.7698 8.78343 29.753 7.63908C29.753 9.40449 29.753 11.1272 29.753 11.819C29.7613 12.9903 30.1717 14.1841 30.9609 15.1994C31.3568 15.7031 31.8605 16.1587 32.4758 16.4895C33.0867 16.8232 33.8152 17.0241 34.5918 17.0228C36.7856 17.0228 38.9809 17.0228 38.9809 17.0228C39.7348 17.0228 40.3459 16.4104 40.3459 15.6578C40.3459 14.9039 39.7348 14.2915 38.9809 14.2915C38.9809 14.2915 36.7856 14.2915 34.5918 14.2915C34.2721 14.29 34.0161 14.2165 33.7729 14.0863C33.4121 13.8939 33.0754 13.5389 32.8379 13.1032C32.6016 12.6732 32.4799 12.1695 32.4841 11.8189C32.4841 11.014 32.4841 8.81315 32.4841 6.77331C34.7487 6.18778 37.1661 5.87799 39.6938 5.87799C40.336 5.87799 40.9866 5.89775 41.6374 5.93875C47.3659 6.29104 52.3251 8.08733 56.2092 11.1736V23.1811C56.2092 23.9365 56.8218 24.5488 57.5757 24.5488C58.3296 24.5488 58.9405 23.9363 58.9405 23.1811V13.7498C59.0129 13.8303 59.0878 13.9082 59.1598 13.9902C63.0723 18.5179 65.1812 24.7656 65.1261 31.3924C65.0993 31.9401 65.0555 32.4604 65.0017 32.9682Z"/>
<path d="M83.3417 37.3783C82.5878 37.3783 81.9754 37.9907 81.9754 38.7446V43.1578C81.9739 44.111 81.2018 44.889 80.2454 44.8905H75.3753C74.6214 44.8905 74.0103 45.5001 74.0103 46.2541C74.0103 47.0095 74.6214 47.6217 75.3753 47.6217H80.2454C82.7108 47.6176 84.7067 45.6231 84.7067 43.1578V38.7446C84.7067 37.9907 84.0956 37.3783 83.3417 37.3783Z"/>
</svg>
