<svg xmlns="http://www.w3.org/2000/svg" xmlns:xlink="http://www.w3.org/1999/xlink" viewBox="0 0 445 320" fill="currentColor"><path d="M111.962 104.234C114.211 100.484 115.744 96.7374 118.441 92.5206C127.314 78.6456 138.789 63.9868 150.159 52.152C179.61 21.6169 219.977 4.01972 262.393 3.22556C266.527 3.15702 271.951 3.05791 275.994 3.23901C297.445 4.19969 317.105 11.1925 336.706 19.4833C347.942 24.2359 358.074 28.551 367.954 36.104C398.072 59.1287 415.986 98.7178 419.628 135.88C420.249 145.846 421.477 157.459 422.261 167.225C423.386 181.22 425.1 184.78 436.083 193.438C440.32 196.778 444.15 203.478 444.245 209.354C444.404 219.198 437.363 227.818 430.92 234.698C417.551 247.809 397.9 258.827 380.265 265.17C359.229 272.735 335.969 276.79 314.002 281.165L240.255 296.076L183.291 307.648C164.128 311.637 143.891 316.845 124.277 316.969C83.882 317.226 49.9865 298.432 21.9375 270.67C15.4411 264.24 6.46625 255.511 3.61317 246.743C2.96537 244.752 2.80532 242.81 2.79839 240.732C2.7877 237.526 3.18136 234.394 4.56711 231.463C9.88823 220.209 34.0095 198.83 44.1096 190.504C50.3169 185.386 56.9363 180.913 62.329 174.869C75.2523 160.385 78.7541 140.322 84.5693 122.417C91.9862 99.5789 102.518 80.169 119.539 63.0343C130.209 52.2929 142.997 43.1833 156.179 35.7806C157.453 35.0656 160.129 33.139 161.55 33.1805C161.763 33.1867 161.772 33.2831 161.902 33.435C161.318 35.0387 156.804 38.1631 155.218 39.637C149.872 44.6032 144.376 49.8118 139.628 55.3545C130.017 66.4441 121.847 78.7048 115.313 91.8448C113.678 95.0816 111.357 99.7962 110.149 103.152C107.598 108.372 102.531 125.375 101.598 131.313C101.273 133.026 101.219 133.844 101.151 135.565C101.549 134.355 101.942 133.248 102.176 131.991C104.389 122.402 107.672 113.091 111.962 104.234ZM48.66 276.093C51.1995 279.217 55.0218 281.82 58.3683 284.251C73.7465 295.389 91.3706 303.625 110.393 305.697C121.761 306.936 132.218 306.968 143.568 305.667C145.637 305.43 148.257 305.066 150.302 304.991C166.1 302.579 199.828 295.741 213.554 287.855C209.262 285.246 206.312 285.243 201.593 284.439C188.447 282.199 174.537 281.26 161.487 278.918C148.626 276.736 136.005 273.322 123.799 268.721C112.104 264.227 100.968 258.396 90.6134 251.343C86.6872 248.626 82.8736 245.75 79.1822 242.721C77.6278 241.447 71.1431 235.719 69.7886 235.433C70.2141 236.87 74.0494 241.718 75.1888 243.237C78.2566 247.386 81.292 251.558 84.2944 255.754C90.8829 264.908 105.875 284.209 87.8606 290.368C76.0052 294.422 58.0933 282.204 48.66 276.093ZM181.411 218.267C183.686 214.146 185.225 206.182 186.331 201.388L192.216 175.682C192.983 172.444 194.073 167.233 195.036 164.171C200.362 146.917 209.081 130.509 222.349 118.146C233.248 107.992 248.507 97.4716 261.59 90.4003C289.209 75.4722 321.282 68.2075 352.49 73.4728C361.777 75.0235 373.096 78.2224 382.246 80.9722C380.21 79.5477 377.496 78.3208 375.219 77.2459C363.994 71.9455 351.409 67.8024 339.048 66.429C334.326 65.9042 327.631 66.0049 322.814 66.132C289.748 66.7189 242.686 86.8825 219.244 110.177C198.177 131.112 189.618 163.702 184.663 192.281C183.504 198.98 182.616 205.723 182.002 212.494C181.876 213.825 181.414 217.233 181.411 218.267ZM421.112 211.061C411.745 222.958 401.447 228.193 388.832 236.189C387.073 237.303 379.856 241.375 378.889 242.231L378.927 242.419C381.121 241.882 384.236 240.583 386.541 239.646C399.779 234.27 413.671 226.254 421.774 214.097C421.826 213.994 421.878 213.891 421.929 213.788C424.544 210.525 426.62 204.769 427.485 200.717C427.739 199.524 428.313 198.217 428.194 197.036L427.771 196.919C427.182 197.453 427.048 198.459 426.856 199.249C425.753 203.788 423.693 207.205 421.112 211.061ZM351.105 245.777C352.053 247.701 356.408 249.589 356.691 251.64C356.309 252.369 355.832 252.726 355.002 252.906C344.708 255.143 334.025 257.488 323.668 259.265C318.437 260.162 312.61 259.558 308.198 256.668C307.705 256.351 305.677 255.227 305.149 255.211C305.601 256.694 310.605 258.348 312.489 261.302C315.069 265.349 314.379 268.816 315.659 271.976C316.308 266.46 317.024 263.949 323.239 262.653C334.42 260.321 345.685 257.972 356.926 255.978C358.422 255.718 363.022 255.181 364.195 256.41C365.142 257.829 365.244 260.632 365.692 262.394C366.015 260.122 366.275 254.234 364.874 252.621C363.562 251.11 352.842 245.887 351.105 245.777ZM67.1596 197.656C67.979 201.43 69.4223 204.547 71.1006 207.988C77.3751 221.117 87.5278 229.569 99.6213 237.308C132.693 258.471 171.807 267.891 210.708 269.753C223.886 270.384 237.216 269.533 250.407 269.832C253.175 269.895 256.324 269.227 259.125 269.201C267.652 268.824 276.243 268.134 284.753 267.416C286.506 267.135 287.808 266.947 289.522 266.447C279.113 266.722 268.419 267.449 258.039 266.802C249.391 266.263 240.643 266.568 232.067 266.156C189.976 264.133 147.044 258.081 109.251 238.328C94.0397 230.379 80.611 221.868 71.8296 206.664C70.9012 205.057 68.0947 198.398 67.1596 197.656ZM295.131 27.125C250.06 28.0804 205.137 46.0166 174.303 79.3514C154.878 100.352 140.991 126.2 134.096 153.975C133.749 155.371 132.772 158.67 133.194 159.94C134.02 158.641 135.682 151.456 136.414 149.376C137.568 146.091 138.7 143.056 140.089 139.809C145.016 128.725 149.99 119.451 156.872 109.398C170.975 88.7984 194.257 65.8491 215.616 52.8155C222.347 48.7348 229.439 45.2817 236.803 42.4999C256.497 34.9219 277.352 31.6729 298.244 29.3681C301.087 29.0545 321.004 27.8723 321.886 27.4033C319.689 26.7665 311.172 27.2387 308.437 27.1942C304.257 27.1261 299.274 26.8423 295.131 27.125Z"/><defs><linearGradient id="gradient_0" gradientUnits="userSpaceOnUse" x1="109.58896" y1="117.83673" x2="103.54536" y2="117.03114"><stop offset="0" stop-color="#CBD8DD" stop-opacity="0"/><stop offset="1" stop-color="#FEF8F8" stop-opacity="0.0078431377"/></linearGradient></defs><path d="M110.149 103.152C110.447 103.173 110.709 103.116 110.998 103.048L111.138 103.251L110.954 103.308C111.847 103.723 111.623 103.46 111.962 104.234C107.672 113.091 104.389 122.402 102.176 131.991L101.598 131.313C102.531 125.375 107.598 108.372 110.149 103.152Z"/><path fill-opacity="0.027450981" d="M101.598 131.313L102.176 131.991C101.942 133.248 101.549 134.355 101.151 135.565C101.219 133.844 101.273 133.026 101.598 131.313Z"/></svg>
