<svg xmlns="http://www.w3.org/2000/svg" xmlns:xlink="http://www.w3.org/1999/xlink" fill="currentColor" viewBox="0 0 366 357"><path d="M181.346 1.40559C182.906 2.48957 188.365 12.5845 190.288 14.9518C199.85 26.7178 203.124 41.2456 191.404 53.1727C189.516 55.0931 185.709 58.1015 184.691 60.7619C183.862 65.6276 184.528 71.1979 184.213 76.3103C187.44 76.1698 190.846 76.3684 194.252 76.22C193.901 80.3405 194.061 86.6146 194.089 90.8176C198.929 91.8818 202.868 94.1124 207.385 96.0366C209.661 93.3732 214.74 88.1119 217.379 86.1244C223.04 91.9217 228.948 98.0967 234.944 103.514C233.388 105.902 227.416 111.443 225.153 113.643C227.117 118.911 228.803 121.273 230.297 127.07C234.822 126.817 240.114 126.969 244.792 126.831C244.354 129.501 244.434 149.49 244.836 152.232C239.984 151.651 235.126 152.372 230.515 151.764C228.93 156.27 226.803 160.877 225.366 165.265C226.633 167.131 232.919 173.165 234.959 175.249C229.779 180.722 222.231 187.348 217.564 192.885C214.792 190.751 209.926 185.474 207.56 182.878C202.862 184.891 199.086 186.71 194.165 188.192C193.895 191.272 194.163 199.382 194.167 202.789C191.32 202.314 185.227 202.449 182.125 202.446C178.256 202.423 172.721 202.367 168.948 202.717C169.133 198.119 169.059 193.045 169.072 188.405C164.598 186.757 160.199 184.912 155.888 182.876C152.428 186.125 149.245 189.912 145.697 193.092C144.974 192.473 144.233 191.604 143.554 190.919C138.444 185.762 133.485 180.252 128.021 175.464C129.738 172.973 135.565 167.558 138.002 165.038C135.511 160.113 134.154 157.267 132.81 151.964C128.064 152.164 123.146 152.087 118.381 152.074C118.634 149.055 118.488 143.268 118.495 140.134C118.503 136.585 118.659 130.443 118.299 127.043C122.841 126.96 127.871 126.812 132.355 127.206C134.025 122.218 135.972 118.293 137.946 113.505C135.174 110.971 130.428 106.447 128.012 103.643C133.875 97.7285 139.768 91.8437 145.69 85.9885C148.138 87.7254 153.361 93.5078 155.723 96.029C160.349 93.9131 164.226 92.0949 169.058 90.4345C169.15 85.8406 169.03 80.8426 169.008 76.2174C172.401 76.5134 175.455 76.3442 178.845 76.334C178.381 71.1281 178.895 65.5752 178.568 60.288C172.671 53.6456 166.488 50.5912 164.178 40.1125C161.857 29.5822 167.665 21.7905 173.227 13.6023C176.008 9.58667 178.715 5.52041 181.346 1.40559ZM183.625 164.495C197.46 163.285 207.702 151.101 206.515 137.263C205.329 123.426 193.161 113.164 179.321 114.328C165.45 115.495 155.158 127.697 156.348 141.567C157.538 155.436 169.757 165.708 183.625 164.495ZM181.872 59.7286C182.335 56.1323 182.842 24.0404 181.733 22.304L181.381 22.1237C180.856 25.508 180.445 57.9224 181.567 59.5872L181.872 59.7286Z"/><path d="M355.701 152.802C356.715 152.712 356.421 152.594 357.19 153.025C357.959 154.645 357.545 161.216 357.546 163.431L357.557 186.1L357.57 207.039C357.571 215.178 357.856 222.538 356.03 230.459C353.081 243.249 346.169 251.319 336.916 260.093C330.017 266.633 323.2 273.835 316.406 280.586C306.247 290.682 306.634 302.851 307.128 316.271C311.484 316.336 315.841 316.3 320.195 316.16C319.476 327.708 319.96 342.009 320.021 353.846C316.123 353.366 310.448 353.522 306.414 353.524L284.849 353.53L261.062 353.524C256.002 353.522 249.491 353.311 244.634 354.013C245.103 348.868 244.816 343.698 244.856 338.549C244.909 331.669 244.897 324.868 244.789 317.987C244.81 317.077 244.676 317.309 245.125 316.664C246.917 315.823 255.442 316.211 257.874 316.243C257.831 315.549 257.798 314.854 257.774 314.158C257.581 308.654 257.812 302.714 257.717 297.345C257.399 279.497 259.521 264.951 272.566 251.707C280.564 243.587 288.974 235.272 297.144 227.097L305.264 219.014C307.123 217.132 311.121 212.186 313.862 212.516C324.083 213.76 318.76 227.281 316.552 233.237C315.461 236.181 306.697 250.977 308.519 252.679C310.557 252.334 315.6 246.446 317.461 244.68C321.488 240.857 325.488 236.826 328.522 232.152C335.382 221.579 336.969 208.725 339.002 196.551L342.702 174.148C343.512 169.243 344.313 162.367 346.795 158.09C348.874 154.508 351.942 153.683 355.701 152.802Z"/><path d="M5.74733 152.662C8.09564 152.87 10.2642 153.333 12.3372 154.509C14.5353 155.751 16.2786 157.663 17.3124 159.966C19.0538 163.937 20.1515 171.94 20.889 176.454L24.9759 201.129C25.929 206.957 26.4586 212.141 28.0386 217.785C31.3647 229.665 37.6909 237.306 46.3066 245.706C49.4005 248.723 52.0231 251.799 55.9257 253.959C54.8059 243.569 42.8451 232.108 43.2482 220.488C43.4555 214.514 46.9803 209.737 52.8603 214.242C54.6595 215.62 56.3479 217.657 57.9244 219.249L66.4884 227.79C75.0785 236.352 83.7443 244.865 92.1789 253.579C104.124 265.919 105.307 281.116 105.373 297.268C105.439 303.601 105.384 309.935 105.205 316.266C108.482 316.103 112.579 316.225 115.916 316.233C116.862 316.198 117.491 316.059 118.136 316.606C118.511 318.922 118.313 325.232 118.337 327.794C118.418 336.448 118.063 345.268 118.218 353.911C115 353.35 108.898 353.523 105.436 353.525L85.0106 353.532L59.1241 353.523C55.1729 353.522 46.5888 353.349 42.946 354.013C43.1811 349.354 43.0692 343.889 43.0651 339.201C43.0766 331.502 43.0442 323.803 42.9679 316.104C47.0553 316.385 51.8932 316.313 56.0271 316.344C55.7127 293.59 57.3069 290.799 40.2903 273.948L26.7575 260.56C22.6305 256.469 17.9232 251.936 14.5954 247.225C10.6791 241.672 7.98483 235.353 6.69033 228.683C5.05794 220.098 5.45518 211.297 5.50002 202.587L5.51637 176.626L5.42598 162.478C5.40942 159.767 5.3065 155.219 5.74733 152.662Z"/><path d="M60.1226 68.1669C61.8846 68.0585 68.8358 75.1028 70.7537 76.565C80.9675 84.3525 91.5291 90.0582 102.644 96.1926C101.423 98.6804 100.419 104.119 99.833 106.964C96.3409 123.895 94.1692 141.071 93.3377 158.338C93.1528 162.201 92.7266 167.066 92.8545 170.821C89.0924 170.344 84.6067 170.437 80.7807 170.434L64.125 170.441C54.8434 170.474 42.7177 169.929 33.7163 170.579C31.7007 157.838 31.8268 152.309 21.4756 143.589C25.8388 120.741 36.2992 99.1323 49.9057 80.3231C52.7786 76.3516 56.5791 71.5442 60.1226 68.1669Z"/><path d="M301.675 67.9833C304.21 68.827 308.576 74.9804 310.371 77.2802C322.686 93.0134 331.99 110.885 337.816 129.996C338.947 133.778 340.357 138.936 340.96 142.816C339.348 145.282 337.105 146.746 335.603 148.912C331.343 155.057 329.723 163.413 329.17 170.76C326.599 170.347 321.54 170.432 318.835 170.427C312.5 170.431 306.165 170.467 299.83 170.536L280.393 170.435C277.567 170.444 272.875 170.378 270.197 170.806C270.438 166.733 269.859 162.097 269.663 157.979C268.916 142.217 267.204 126.571 264.161 111.085C263.156 105.973 262.343 101.211 260.685 96.2501C263.88 94.4664 267.304 92.8925 270.457 90.9833C275.925 87.6729 281.572 83.9182 286.691 80.0897C289.36 78.0784 291.971 75.9906 294.519 73.8288C296.231 72.3554 299.841 68.9596 301.675 67.9833Z"/><path d="M188.311 253.417C207.337 254.911 226.83 258.561 244.385 266.274C243.493 269.062 242.807 271.77 241.836 274.596C236.874 289.514 229.723 303.613 220.619 316.43C214.646 324.748 205.941 333.059 196.477 337.173C193.862 338.31 190.859 339.204 188.126 340.154C188.425 336.786 188.297 332.121 188.298 328.646L188.297 309.851L188.311 253.417Z"/><path d="M173.201 253.595C174.02 253.443 173.674 253.359 174.299 253.682C175.08 255.567 174.89 267.499 174.879 270.321L174.543 316.643C174.519 322.609 174.211 334.93 174.878 340.228C172.201 338.978 169.311 338.478 166.753 337.296C157.297 332.927 149.87 325.722 143.52 317.644C132.325 302.676 124.754 286.187 119.226 268.389C118.667 266.613 119.768 265.685 121.307 265.065C134.197 259.877 147.589 256.403 161.385 254.754C165.398 254.274 169.257 254.123 173.201 253.595Z"/><path d="M108.683 184.113C110.672 184.101 116.994 183.932 118.185 184.782C127.139 191.172 137.255 205.012 146.063 211.091C149.748 208.436 152.747 205.122 155.926 201.877C155.714 206.16 155.858 211.199 155.747 215.631C162.055 215.295 168.428 215.569 174.77 215.375C174.665 221.37 174.43 234.378 175.015 239.966C173.348 239.949 171.02 240.241 169.312 240.405C156.207 241.328 143.239 243.642 130.624 247.31C127.519 248.206 117.564 251.955 115.504 252.264C111.909 250.1 105.21 190.871 106.468 184.538C107.078 184.064 107.861 184.151 108.683 184.113Z"/><path d="M246.778 184.114L256.802 184.074C256.566 188.502 256.526 192.966 256.227 197.404C255.37 210.577 253.795 223.693 251.508 236.693C250.623 241.783 249.745 247.848 247.951 252.63C232.99 246.914 217.009 242.347 200.998 240.848C196.762 240.678 192.445 240.098 188.24 240.008C188.487 232.23 188.419 223.38 188.222 215.588C194.031 215.453 201.395 215.244 207.128 215.685C207.224 211.388 207.38 206.393 207.17 202.154C210.571 205.396 213.019 208.366 216.928 211.097C220.271 209.153 223.09 205.581 225.959 202.953C232.367 197.084 237.931 190.164 244.599 184.634C245.069 184.245 246.17 184.161 246.778 184.114Z"/><path d="M138.757 19.2568L138.98 19.4744C138.914 20.3147 134.512 25.334 133.633 26.4805C131.331 29.4536 129.189 32.5475 127.217 35.749C116.376 53.0383 112.778 64.423 105.753 82.7248C103.344 80.6383 97.3612 77.2962 94.5375 75.5965C90.9384 73.43 88.9774 72.0417 85.616 69.4493C80.6906 65.4061 75.8387 61.2743 71.0627 57.0556C84.3251 43.4418 104.436 32.0331 122.088 24.9952C126.815 23.1102 134.499 21.3592 138.479 19.396L138.757 19.2568Z"/><path d="M223.263 20.2047C224.346 20.0819 226.281 20.5835 227.382 20.8745C248.665 26.5036 268.208 37.6915 285.283 51.4338C286.809 52.6622 291.032 55.7111 291.246 57.644C290.094 60.3938 281.177 66.8431 278.319 68.9881C273.46 72.9154 267.998 76.1214 262.647 79.3281C260.799 80.4352 258.986 81.436 257.322 82.8133C255.12 77.5236 253.466 71.4872 251.3 66.0487C244.969 50.1468 235.462 32.2247 223.263 20.2047Z"/><path d="M43.768 184.124C59.9401 183.703 76.3485 184.074 92.545 184.132C92.8141 185.985 92.7957 188.703 92.8887 190.648C93.0772 194.401 93.3133 198.151 93.5969 201.898C94.5717 214.176 95.9585 226.419 97.7552 238.604C95.9043 236.83 93.878 234.636 92.0717 232.774C85.374 226.196 78.7228 219.57 72.1186 212.897C61.5358 202.244 54.7683 192.92 38.5934 201.648C38.3934 197.14 36.7779 189.516 36.0873 184.618C38.7048 184.302 41.1329 184.227 43.768 184.124Z"/><path d="M271.398 184.085C289.745 183.634 308.788 184.849 326.857 184.08C325.482 189.273 325.321 194.908 323.89 200.442C320.822 198.89 317.42 198.114 313.983 198.182C304.67 198.375 300.556 203.217 294.627 209.423C289.08 215.08 283.489 220.693 277.853 226.261C273.914 230.177 269.351 234.912 265.247 238.557C268.192 220.54 269.599 202.754 270.466 184.589C270.481 184.277 271.112 184.179 271.398 184.085Z"/><path d="M150.419 28.9529C150.811 29.5823 150.372 35.9593 150.561 37.8529C151.595 48.2062 154.905 56.7916 162.869 63.6438C160.687 63.3355 158.169 63.307 155.941 63.2217C155.975 67.8564 155.642 72.5242 155.95 77.1443C152.872 73.7973 150.145 70.725 146.579 67.8663C142.09 70.1664 135.591 77.3934 131.832 81.2463C130.077 82.9769 124.493 89.0997 122.754 89.8012C121.668 89.7895 118.904 88.8486 119.121 87.3772C119.612 84.048 121.012 80.6303 122.175 77.4502C127.376 63.2175 133.928 49.3191 143.17 37.2356C145.348 34.3924 148.014 31.6328 150.419 28.9529Z"/><path d="M212.046 28.8703C212.177 28.8937 212.646 29.0162 212.71 29.0824C223.185 39.7193 230.875 52.84 236.603 66.586C238.873 72.0336 241.22 77.8475 243.105 83.4503C244.667 88.0931 244.525 88.5482 240.206 90.0553C238.698 88.8752 233.83 83.7698 232.152 82.0812C228.3 78.1308 221.46 70.681 217.187 67.9766C213.584 69.8855 209.833 73.9723 207.191 77.0846C207.459 72.9198 207.194 67.6562 207.33 63.2361C205.023 63.4799 203.262 63.2169 200.59 63.5846C210.218 53.9828 214.189 42.3849 212.046 28.8703Z"/></svg>
