<svg xmlns="http://www.w3.org/2000/svg" xmlns:xlink="http://www.w3.org/1999/xlink" fill="currentColor" viewBox="0 0 417 349"><path d="M235.265 0L241.63 0C241.644 1.86471 239.794 4.70076 238.901 6.44603C232.385 18.9211 224.826 30.8231 216.304 42.0249C207.991 52.9959 197.939 63.8171 185.298 69.7884C182.726 71.0036 178.994 71.274 177.163 72.3713C174.729 72.1635 171.075 71.4917 168.505 71.406C168.237 71.397 167.641 69.7763 166.433 70.187C166.346 71.6078 166.479 72.9735 166.424 74.3463C166.287 75.3366 165.62 76.1434 165.599 77.162C165.42 86.0092 168.078 93.8538 170.513 102.219C170.849 103.374 172.097 105.08 172.617 106.227C173.166 107.437 173.607 107.312 173.201 108.737C183.947 129.177 197.217 154.347 200.344 177.278L200.603 177.289C201.207 176.039 201.558 174.795 202.16 173.522C206.856 163.587 213.752 155.129 220.401 146.483C220.449 146.421 220.355 145.576 220.339 145.453C222.292 142.761 224.561 142.558 226.374 138.555C226.963 137.253 233.401 132.202 234.388 130.569C237.887 127.111 241.327 123.391 244.956 120.07C246.813 118.37 249.571 116.928 251.566 115.324C252.975 114.191 254.021 112.509 255.612 111.623C258.588 110.36 261.197 107.875 263.9 106.394C267.576 104.38 269.547 103.002 272.703 100.328C273.378 100.302 273.405 100.346 274.027 100.545C276.967 97.6399 289.358 93.5468 292.74 90.5343C291.565 91.5808 303.957 86.4924 304.076 86.1894C304.64 85.7423 306.236 85.8622 306.626 84.9509L306.413 84.3099L306.641 84.0368C307.047 84.1751 307.117 84.3681 307.38 84.7214C308.493 84.5897 311.21 83.5493 312.203 82.9993C312.486 82.6077 313.021 81.7593 313.202 81.0253C313.904 78.1741 314.578 75.2194 315.373 72.3798C315.39 72.3204 315.137 71.7668 315.129 71.7502L315.411 71.3959L316.358 71.3673C316.948 70.3352 316.195 70.0781 316.333 69.7657C316.874 68.547 319.393 66.7484 319.575 65.6144L319.178 64.72L319.449 64.4249C319.988 64.4229 320.674 64.5406 320.878 64.0506C322.298 60.641 323.577 60.1874 326.559 58.2233C334.826 52.7087 342.884 50.4014 352.66 49.2387C359.697 48.4019 363.372 49.3953 370.195 50.4128C375.129 51.1485 378.159 51.8254 382.835 53.8281C383.414 54.0761 383.847 53.5719 384.359 53.232L384.324 54.0995C384.748 54.4519 387.316 55.1343 388.178 55.4938C395.771 58.6608 408.768 63.806 417 61.956L417 64.7228C416.164 64.6085 415.889 64.3857 415.205 64.9596C414.139 65.8531 413 66.6947 411.941 67.592C409.378 69.7634 406.466 71.2649 403.654 73.0817C399.878 75.5206 396.031 77.929 392.057 80.0412C386.592 82.81 381.068 85.5924 375.466 88.0957C373.662 88.9019 370.791 89.9143 368.833 90.6356C368.833 90.6356 368.361 91.4337 368.361 91.4337C367.796 91.5276 366.911 91.644 366.352 91.8086C363.524 92.6406 360.795 93.864 357.947 94.6417C357.828 94.6744 357.317 95.6168 357.239 95.7698C357.013 95.7218 356.101 95.2501 356.398 95.252C355.29 95.245 354.215 95.619 353.119 95.9559C343.919 98.7834 333.746 99.2167 324.377 96.9171C322.944 96.5655 321.129 95.4764 319.901 94.653C313.604 88.671 314.119 89.7688 307.097 94.6206C306.164 94.3979 306.22 94.2426 305.373 94.7462C293.005 102.094 280.704 109.981 269.773 119.381C266.647 122.069 262.379 126.896 259.261 129.892C257.12 131.949 253.382 135.558 251.481 137.667C249.605 139.748 246.172 143.938 244.376 146.171C241.635 149.524 239.014 152.972 236.517 156.511C234.245 159.769 230.677 165.207 228.141 168.085C227.187 169.186 226.19 170.307 225.26 171.421C226.671 170.699 227.521 169.962 228.745 168.984C229.125 168.656 232.28 167.389 233.021 167.052C243.217 162.401 254.009 160.122 265.19 159.476C268.779 158.998 271.828 158.878 275.445 158.931C279.531 159.205 288.363 160.243 292.3 159.826C291.366 159.097 274.417 158.179 272.14 158.257C268.072 158.295 268.719 158.528 265.41 159.225L265.394 158.962C265.118 153.916 268.899 151.676 272.827 149.627C275.489 148.239 278.244 146.852 280.873 145.414C282.65 145.773 286.235 144.72 288.194 144.254C295.445 142.527 302.616 143.933 309.659 145.87C311.35 146.334 313.445 146.475 314.908 147.513C316.312 148.434 316.808 148.718 318.441 148.38C318.388 148.85 318.365 149.077 318.501 149.544L319.014 149.701C319.393 149.472 319.767 149.236 320.137 148.992L320.494 149.1L320.6 150.125C322.16 151.064 323.955 151.778 325.531 152.753C328.386 154.52 331.341 156.792 333.959 158.902C335.467 160.118 337.818 162.642 339.243 164.055C342.971 167.814 346.677 171.58 350.451 175.294C351.319 176.149 353.306 177.142 353.815 177.741C355.321 179.511 356.661 180.209 358.349 181.582C358.38 182.405 358.243 182.288 358.663 182.784C360.028 182.606 359.21 181.995 360.456 182.045C360.657 182.602 360.663 182.563 360.621 183.15C362.216 184.492 364.264 183.977 365.094 185.962C365.083 186.851 365.218 186.599 364.737 187.156C360.185 187.911 355.502 189.972 350.39 189.467C350.256 189.453 349.335 190.503 347.701 190.237C346.51 190.044 343.989 190.369 342.7 190.502C324.28 192.407 305.077 192.487 286.926 188.499C281.227 187.217 272.724 182.993 267.821 179.688C263.594 176.84 261.34 169.976 262.802 165.036C259.594 166.457 255.183 167.56 251.771 168.655C251.771 168.655 251.221 169.518 251.221 169.518C250.304 169.68 249.15 169.988 248.333 170.339C246.444 171.151 244.685 172.201 242.957 173.282C234.214 178.64 226.749 185.845 221.084 194.393C220.01 195.995 218.526 197.538 218.665 199.439C215.062 202.799 213.796 207.941 211.76 212.36C211.286 214.451 211.582 215.488 210.294 217.457C209.914 218.038 209.06 221.049 208.918 221.784C207.61 228.541 206.327 235.08 206.315 241.991C206.197 244.673 205.648 247.439 205.795 250.127C206.805 268.577 209.045 287.578 216.045 304.844C219.018 312.177 225.183 321.46 231.839 326.382C232.547 326.906 233.311 325.253 233.585 327.137C240.593 331.764 250.688 331.117 258.831 331.607C266.935 332.169 275.032 332.813 283.122 333.538C308.607 335.892 333.932 339.731 358.969 345.036C360.945 345.438 373.835 348.185 374.853 349L53.4237 349C54.0537 348.521 55.8364 348.126 56.6639 347.925C92.965 339.137 130.032 334.483 167.182 331.572C167.412 331.554 167.45 330.701 167.482 330.478L167.752 330.29C169.119 330.765 169.291 330.784 170.671 330.361C173.898 325.492 177.646 324.482 179.481 317.207C183.544 301.096 182.494 283.275 180.988 266.838C180.3 259.336 176.986 249.905 174.927 242.629C174.876 242.451 172.372 235.619 172.538 235.753C170.705 234.272 171.392 232.729 170.291 230.578C169.862 230.518 169.554 230.467 169.131 230.374C169.242 229.882 169.418 229.592 169.642 229.147C169.429 228.139 166.964 223.754 166.293 222.668L165.339 222.57L165.109 222.234L165.745 221.412C165.705 220.594 165.867 220.902 165.398 220.392L164.378 220.461L164.195 220.262C164.691 219.556 164.703 219.751 164.776 219.001C164.248 218.351 164.428 218.559 163.306 218.42C163.332 218.21 163.448 217.181 163.354 217.039C161.494 214.221 159.281 210.547 157.404 207.818C154.78 204.006 152.443 201.53 149.337 198.276C148.046 196.923 146.803 194.742 145.315 193.391C140.762 189.261 136.515 185.429 130.891 182.799C128.94 181.887 126.484 180.168 124.574 179.427C117.436 176.658 111.325 175.413 103.911 174.144C103.207 178.992 102.383 183.03 98.4875 186.382C95.1367 189.265 83.7293 196.295 79.3393 196.383C78.0697 196.408 78.762 196.979 78.1962 197.69C77.6927 197.573 76.231 197.244 75.7482 197.421C60.8414 202.906 44.6909 203.085 29.0388 204.176C23.0074 204.597 16.4964 204.356 10.4981 203.603C8.81128 203.391 5.70403 203.821 4.20615 203.301C3.39507 201.545 4.48758 200.946 5.69207 200.162C6.46865 199.657 7.39874 198.389 8.24702 197.801C10.8188 196.02 13.5641 194.304 15.7925 192.099C19.7387 187.67 22.9577 181.628 26.7762 177.062C28.2613 175.286 31.7155 172.388 33.5463 170.543C35.3834 168.693 38.7805 164.716 40.5656 163.35C42.5568 161.825 44.8176 161.411 47.3931 159.121L47.2716 158.415L47.5767 158.118L48.0632 158.634C48.4855 158.686 53.739 156.329 54.5158 155.95C60.6206 152.974 68.7261 151.745 75.2429 151.877C78.8577 151.949 84.6824 153.982 86.2473 153.365C86.991 153.906 89.967 155.93 90.7564 155.854L91.2429 155.129L91.5347 155.319L91.1618 156.038C91.4331 156.368 94.0225 157.359 94.6803 157.636C98.6902 159.323 100.981 163.13 102.216 167.233C101.907 167.156 101.596 167.083 101.285 167.015C92.1478 165.026 58.569 174.192 50.7104 179.255C52.6385 178.726 56.0457 177.305 58.1529 176.579C62.647 175.078 67.167 173.656 71.7109 172.314C78.2216 170.393 85.9395 168.758 92.6695 167.964C95.2208 167.663 97.7256 167.799 100.159 167.627C111.543 166.823 122.073 167.728 133.024 171.144C137.535 172.551 141.41 174.122 145.718 176.151C147.181 176.84 148.622 177.778 150.079 178.45C150.532 178.659 150.811 178.38 151.291 178.129C152.449 179.934 157.007 182.605 158.845 184.152C163.918 188.422 168.988 192.912 173.601 197.674C177.672 201.878 180.329 207.188 183.04 212.255C182.285 206.852 182.624 201.571 182.518 196.151C182.585 192.968 181.87 189.603 181.765 186.464C181.311 172.99 178.217 159.667 174.511 146.753C173.405 142.902 171.788 138.726 170.372 134.947C170.213 134.524 169.694 133.53 169.497 133.086C169.666 132.149 169.822 132.633 169.51 131.612L168.581 131.197L168.865 130.517C167.196 125.844 164.159 120.239 161.987 115.782C161.456 114.694 159.756 111.035 159.252 110.233C158.806 110.371 158.696 110.478 158.278 110.334C158.425 107.953 155.794 104.049 154.172 102.399L153.319 102.548C153.323 102.419 153.515 101.108 153.56 101.208C152.717 99.3456 150.751 98.8386 150.502 96.6068C150.223 96.547 150.053 96.5178 149.764 96.4797L149.494 96.446C148.707 94.4688 147.07 92.9652 145.864 91.2938C141.625 85.4313 136.43 80.8045 131.363 75.694C130.468 74.9368 125.642 69.1247 124.845 69.4932C122.029 70.7954 117.298 74.6255 113.952 75.1039C98.9295 77.2512 83.6348 71.0408 70.856 63.7077C62.083 58.6732 53.6653 52.9197 45.2959 47.2734C43.9662 46.3762 43.1552 45.1547 41.8958 44.1964C38.0792 41.4202 34.1419 38.5781 30.8631 35.1646C29.744 33.9995 26.207 30.9914 27.2337 29.3175C30.4586 29.3618 35.2744 29.5226 38.3654 29.0872C53.8105 26.9114 70.1077 21.249 85.8085 22.9779C88.8458 23.3123 96.116 25.4162 99.3836 26.241C100.41 26.5002 102.637 28.3005 104.16 28.6441C104.679 28.4037 104.844 28.2752 105.422 28.3082C105.473 28.9258 105.443 28.9367 105.741 29.5107C106.513 29.6956 106.249 29.6515 107.152 29.1983C107.958 29.5308 107.346 30.07 107.576 30.1825C110.175 31.4538 112.753 32.9951 114.521 35.3415C114.729 35.6178 115.299 35.3416 115.584 35.2603C118.525 38.3303 123.554 46.0798 125.001 50.2173C125.741 51.9699 126.163 60.4556 127.45 61.2979C134.572 65.9607 141.027 70.9378 147.524 76.4519C149.482 78.113 153.638 83.174 155.631 83.4178C156.037 82.9615 155.375 80.2001 155.509 79.444C156.538 73.643 157.341 64.5771 161.583 60.3243C163.782 56.4651 167.034 51.8976 170.101 48.709C174.453 44.1845 177.347 42.5167 180.645 37.1466C179.104 38.3769 177.592 40.3413 176.101 41.6917C169.11 48.0271 165.925 51.9262 161.278 60.0303C160.612 60.4915 160.495 60.6564 159.729 60.6708C159.608 60.5718 159.538 60.5272 159.443 60.4114C157.384 57.9033 158.648 45.2223 159.618 41.8643C160.061 40.332 161.614 38.2286 161.637 36.7168C161.643 36.3115 161.315 36.1171 161.048 35.8322L161.299 35.415L162.026 35.5049C162.67 35.1957 165.503 28.6956 166.802 27.2103C169.848 23.6293 173.129 20.5369 176.817 17.6512C178.57 16.2802 184.337 13.4773 184.91 12.3438C185.566 12.5046 186.057 12.7528 186.603 12.348L186.357 11.6553C188.287 10.812 190.698 10.4359 192.605 9.66499C201.344 6.13328 210.43 5.51053 219.557 3.75056C223.312 3.02656 232.095 1.88236 235.265 0ZM313.886 82.8699C316.098 82.2433 318.202 81.2773 320.368 80.4896C323.361 79.401 327.495 78.1991 330.353 77.1351C335.116 75.3619 354.55 70.5242 357.804 68.3433L357.841 68.0803L357.515 67.9849C351.765 70.1719 315.926 80.0475 313.468 82.3772L313.458 82.784L313.886 82.8699ZM126.133 60.9925C124.77 57.5897 93.9411 43.9633 89.4919 44.2722C96.8832 47.5337 104.41 49.7836 111.89 53.3007C114.252 54.411 125.09 60.7 126.133 60.9925Z"/><path fill-opacity="0.011764706" d="M89.4919 44.2722C93.9411 43.9633 124.77 57.5897 126.133 60.9925C125.09 60.7 114.252 54.411 111.89 53.3007C104.41 49.7836 96.8832 47.5337 89.4919 44.2722Z"/><path fill-opacity="0.015686275" d="M161.278 60.0303C165.925 51.9262 169.11 48.0271 176.101 41.6917C177.592 40.3413 179.104 38.3769 180.645 37.1466C177.347 42.5167 174.453 44.1845 170.101 48.709C167.034 51.8976 163.782 56.4651 161.583 60.3243L161.278 60.0303Z"/><path fill-opacity="0.050980393" d="M272.14 158.257C274.417 158.179 291.366 159.097 292.3 159.826C288.363 160.243 279.531 159.205 275.445 158.931C274.608 158.572 272.048 158.83 270.731 158.638L272.14 158.257Z"/><path fill-opacity="0.41176471" d="M265.41 159.225C268.719 158.528 268.072 158.295 272.14 158.257L270.731 158.638C272.048 158.83 274.608 158.572 275.445 158.931C271.828 158.878 268.779 158.998 265.19 159.476L265.41 159.225Z"/><path fill-opacity="0.015686275" d="M228.141 168.085L228.745 168.984C227.521 169.962 226.671 170.699 225.26 171.421C226.19 170.307 227.187 169.186 228.141 168.085Z"/></svg>
