<svg xmlns="http://www.w3.org/2000/svg" xmlns:xlink="http://www.w3.org/1999/xlink" fill="currentColor" viewBox="0 0 366 316"><path d="M358.47 6.64845C358.727 6.79497 358.623 6.78874 358.758 7.23742C357.495 12.447 354.486 20.5085 352.666 25.8178L341.319 58.7686L333.664 81.0262C332.841 83.4038 330.671 90.0639 329.58 91.9725L329.161 91.988C326.194 90.7697 315.224 78.2818 312.516 75.3019C310.349 77.7375 302.353 83.794 299.341 86.1825L272.726 107.272L173.566 185.966C172.33 184.934 170.157 182.404 168.959 181.102L158.914 169.983C151.56 161.823 143.524 153.7 136.548 145.242C134.372 147.501 126.549 152.993 123.656 155.116L98.6306 173.481L10.1276 238.378L7.62953 239.368C7.93263 236.287 7.67347 233.058 7.65148 229.959C7.6057 223.509 6.81373 194.497 8.96051 190.228C9.85778 188.444 12.2966 186.595 13.8722 185.379C22.8828 178.426 32.2202 171.831 41.3734 165.063L105.565 117.856L127.692 101.565C130.231 99.6961 139.938 92.2076 142.414 91.3582C143.792 91.6324 154.363 104.039 155.995 105.856C163.489 114.092 170.937 122.371 178.338 130.692C180.101 128.514 187.468 122.914 189.922 120.971L210.665 104.494L260.539 64.8482C268.993 58.1388 278.494 50.1859 287.125 43.8701C284.978 40.9129 273.111 24.4092 272.552 22.1873L272.79 21.9132C276.663 20.6058 283.295 19.6611 287.539 18.9217C295.518 17.4673 303.507 16.0657 311.505 14.717L339.62 9.68497C344.837 8.72848 353.331 6.98074 358.47 6.64845Z"/><path d="M311.574 119.653C312.9 119.67 313.401 119.922 314.452 120.716C324.226 128.105 335.832 134.943 345.13 142.806C345.463 145.433 345.406 149.703 345.408 152.426L345.402 167L345.408 214.053L345.417 275.444L345.421 295.083C345.421 298.473 345.548 303.274 345.296 306.539L319.845 306.54L285.772 306.563C285.656 305.328 285.627 303.753 285.618 302.502C285.54 291.952 285.569 281.385 285.568 270.835L285.579 213.156L285.582 172.388C285.58 164.9 285.375 157.343 285.65 149.862C285.724 147.846 285.765 144.947 286.502 143.069C287.439 140.68 307.574 123.805 311.574 119.653Z"/><path d="M249.4 163.421C250.148 163.512 249.911 163.376 250.389 163.856C250.105 165.616 250.226 169.063 250.235 171.004L250.266 183.247L250.281 229.365L250.281 282.475L250.268 298.368C250.267 300.093 250.15 304.493 250.325 305.97L250.365 306.279C250.235 306.374 250.106 306.47 249.976 306.565C246.838 306.458 242.321 306.478 239.302 306.475L194.687 306.485C193.768 306.565 193.923 306.705 193.388 306.281C192.972 302.533 193.247 292.271 193.246 288.091L193.257 250.716L193.225 224.079C193.222 222.166 192.745 210.106 194.111 208.876C195.534 207.594 199.719 204.2 201.34 202.862L216.921 190.041L237.911 172.784C241.307 169.989 245.979 165.877 249.4 163.421Z"/><path d="M134.994 184.384C135.281 184.391 135.579 184.406 135.854 184.495C136.871 184.824 155.974 208 157.463 210.644C158.197 211.948 158.249 213.524 158.297 214.988C158.537 222.238 158.27 229.594 158.272 236.858L158.283 282.885L158.246 302.156C158.244 302.642 158.326 306.224 158.278 306.397C157.106 306.809 128.748 306.478 125.375 306.469L110.63 306.46C107.831 306.459 104.008 306.358 101.288 306.637L101.267 244.825L101.262 224.701C101.262 223.234 101.057 212.555 101.723 211.977C112.586 202.558 124.046 193.715 134.994 184.384Z"/><path d="M63.0073 237.907L63.6019 238.279C64.3817 239.892 63.8469 299.149 64.0707 306.561C60.7924 306.082 49.8257 306.302 45.8646 306.301L9.55373 306.343C8.87084 306.421 8.83728 306.418 8.15306 306.339C7.75054 305.651 7.97116 285.111 7.999 282.596C22.2613 270.703 36.948 259.173 51.3158 247.395C55.1533 244.249 59.0869 240.919 63.0073 237.907Z"/></svg>
