<svg xmlns="http://www.w3.org/2000/svg" xmlns:xlink="http://www.w3.org/1999/xlink" fill="currentColor" viewBox="0 0 262 200"><path d="M28.7798 68.1143C30.3469 63.5146 31.505 58.6656 32.8193 53.9543L40.3524 26.6192C41.8431 21.1777 43.1905 15.1231 45.4186 9.98065C46.9028 6.55533 50.8506 4.23565 54.4724 4.05393C58.8082 3.95715 63.1931 4.00674 67.5409 4.01118L91.6386 4.01977L122.051 4.02655C127.265 4.02763 132.552 3.98466 137.769 4.05605C139.66 4.08193 142.077 4.29387 143.73 5.21823C148.27 7.75699 149.365 12.3963 150.008 17.1632C148.089 17.2006 145.938 17.2901 144.038 17.2283C144.828 22.0971 146.297 27.0738 147.515 31.8751L154.435 59.2373C155.294 62.6764 156.777 67.761 157.438 71.1102L226.461 71.1395L245.194 71.0822C247.848 71.0796 255.598 70.6439 257.324 72.0346C259.358 73.6739 256.397 77.1151 260.049 79.4841C259.669 85.9512 258.678 91.7425 259.209 98.2271C259.614 103.173 259.141 109.657 258.264 114.544C258.264 114.544 257.745 115.012 257.722 115.033C256.458 115.303 255.85 115.034 255.188 115.663C254.337 121.825 254.359 123.957 250.639 129.18C240.88 122.885 231.165 119.981 219.439 122.541C213.249 123.857 207.501 126.743 202.748 130.921C201.636 131.885 199.255 134.268 198.312 134.957C188.505 135.475 178.577 134.717 168.766 135.145C165.108 135.304 166.772 141.518 163.332 141.68C158.261 141.919 153.123 141.677 148.041 141.699C140.162 141.559 131.828 141.901 124.002 141.505C122.25 136.323 123.254 134.651 117.013 135.131C116.975 136.882 117.116 142.006 116.236 143.123C114.069 144.126 111.923 140.463 111.495 145.395C112.615 145.707 114.483 146.114 115.337 146.791C116.219 148.548 113.036 159.02 111.42 159.923C109.399 159.573 108.694 158.043 107.201 158.856C106.355 161.104 108.281 161.978 109.928 163.334C108.752 165.879 104.574 173.411 102.268 174.392C100.688 174.186 98.3858 169.736 97.5609 173.508C97.8981 174.997 98.6785 175.668 99.6951 176.791C96.1315 181.995 93.6169 182.246 89.1354 186.156C88.2723 185.16 86.8885 182.792 86.335 182.51C85.5565 182.589 85.4636 182.689 84.8589 183.19C84.3987 184.665 85.2583 185.859 85.9561 187.348C83.4857 189.019 76.1807 192.379 73.3284 192.655C71.5877 191.815 72.8098 189.46 71.4834 188.756C70.7996 188.836 70.1018 188.863 69.491 189.166C68.9924 190.533 70.0327 192.987 68.2772 193.603C65.4186 194.608 58.4839 194.659 55.4074 194.498C55.4699 193.252 55.8084 190.852 55.3033 189.953C52.0785 188.198 53.1481 193.444 51.7035 193.8C49.5501 194.332 40.4711 192.283 38.905 191.165C38.1907 188.843 40.609 187.478 39.1262 186.289C36.9434 186.171 36.6894 187.716 35.2962 189.408C30.5702 188.08 26.9236 185.776 23.1857 182.638C23.9915 181.398 25.2956 179.969 24.7975 178.49C23.2102 177.512 21.7592 179.303 20.4909 180.157C17.1976 178.037 14.4852 174.914 11.9672 171.932C9.83428 169.406 13.5478 169.23 14.3308 167.483C13.6834 163.821 10.1329 167.611 8.92893 166.604C6.31304 164.416 4.17469 158.055 2.76651 155.043C4.13487 154.427 6.08643 153.841 6.89296 152.832C7.04008 151.902 7.11421 152.207 6.76749 151.385C4.9588 150.269 3.65916 151.766 2.36561 150.955C0.928005 150.053 0.865272 145.957 0 144.751L0 137.547C1.57579 137.511 3.58796 137.743 4.53888 136.303C4.2213 134.794 1.27611 134.126 0 133.717L0 127.796C1.23225 126.098 0.488511 122.14 2.40454 120.361C4.00183 120.11 4.71252 121.967 6.50452 120.764C6.95599 119.837 6.97004 120.123 6.89082 119.186C5.65949 117.641 3.29724 117.798 3.54038 115.816C3.83068 113.449 7.74671 105.942 9.35483 104.51C10.5604 105.239 12.7942 106.925 13.9797 105.402C14.0392 103.634 12.7265 102.949 11.5259 101.862C13.2369 98.1332 17.5251 93.5121 20.7906 91.2341C21.649 92.2428 23.3889 94.8283 24.8441 93.6496C25.2516 91.9237 24.5608 90.9985 23.7784 89.3928C27.574 85.5054 30.825 84.323 35.6117 81.9418C36.1536 83.2843 36.6972 85.0841 37.6845 86.037C38.7968 86.3389 38.8792 85.9248 39.4149 84.9592C39.578 83.4284 38.2741 82.0654 39.7967 80.8996C42.1404 79.1051 48.8748 78.1052 51.7369 77.9246C53.6481 78.7276 52.4386 80.9593 53.6105 82.3245C55.7986 82.6798 55.7454 79.446 56.2289 77.8745C58.8623 77.533 68.6405 77.0593 69.847 79.5255C70.0421 81.4628 67.6604 82.3742 70.6753 83.6564C72.297 83.2496 72.5927 78.9594 75.6978 80.0471C77.6108 80.7172 85.2247 83.1915 85.928 84.8654C85.5704 86.2713 84.4756 87.9208 84.5477 88.8572C85.2513 89.2956 85.3522 89.3676 86.1701 89.3058C88.0843 88.5554 88.5889 86.2235 90.7795 87.3718C93.9168 89.0165 97.6772 92.6881 100.252 95.1515C99.3817 95.9344 96.2117 98.4721 97.7717 99.6588C99.4753 99.7991 100.938 98.939 102.323 98.0171C107.167 102.414 107.065 104.066 110.429 109.16C108.631 110.198 107.511 110.523 106.905 112.451L106.982 112.921C108.512 113.936 110.468 112.497 111.702 111.54C113.233 111.479 114.912 111.378 116.431 111.375C110.446 95.2879 99.7341 83.5921 84.0403 76.4222C69.5932 69.9222 53.1649 69.3852 38.3242 74.9277C34.4681 76.3998 30.7275 78.158 27.1335 80.1877C24.3403 81.7717 21.3794 83.8905 18.4208 84.9018C15.5022 83.5286 13.43 81.3424 15.31 78.0209C17.9837 73.2972 24.3524 70.8768 28.7798 68.1143ZM54.3279 105.434C37.3746 107.694 25.502 123.324 27.8723 140.262C30.2426 157.2 45.9496 168.97 62.8719 166.49C79.6388 164.032 91.2775 148.5 88.929 131.718C86.5804 114.935 71.1255 103.195 54.3279 105.434ZM127.361 57.8027C130.054 55.0454 136.348 48.3069 139.29 46.3537C140.029 46.9021 140.768 47.2628 141.106 48.0161C140.707 50.1613 136.021 53.8617 134.395 55.9426C136.236 58.1641 142.758 65.1157 144.872 66.8651C145.358 65.3613 146.145 63.2684 145.93 61.7736C145.128 56.2184 143.675 50.2895 142.51 44.8062L139.053 28.5371C138.327 25.1411 137.836 20.6278 136.259 17.5627C135.499 16.0847 134.199 14.8259 132.588 14.3387C128.234 13.0225 104.769 13.691 99.0004 13.7644C96.7138 14.6024 94.852 15.6323 93.7454 17.949C93.2349 19.0178 93.0144 20.1644 92.9447 21.3389C92.6847 25.716 93.0189 30.2172 93.0221 34.6076C93.0257 39.579 92.3682 62.4543 93.38 65.295C93.8223 66.5366 94.9865 68.4503 96.2445 69.0068C97.7359 69.6666 99.4446 69.973 101.063 70.0929C107.526 70.5715 114.3 70.12 120.785 70.0668C126.271 70.0218 131.83 70.3623 137.304 70.0342C138.676 69.952 140.189 69.8344 141.476 69.3202L141.655 69.2467C141.734 68.9378 141.885 68.6355 141.648 68.4462C139.222 66.5124 134.338 60.2048 132.332 58.7872C130.345 58.6006 126.279 65.2711 123.781 64.9907C123.419 64.9532 123.092 64.7533 122.894 64.447C121.618 62.4761 126.002 59.1111 127.361 57.8027ZM67.1142 31.7119C67.5427 30.4996 68.4573 27.974 70.059 28.7173C72.5327 29.8653 73.6352 37.3855 74.2404 39.8772L78.4766 57.4183C79.2473 60.6337 80.3395 65.647 81.4257 68.7094C85.5099 67.6604 88.3317 67.0976 88.5285 61.9119C88.7597 55.8174 88.5078 49.6917 88.5584 43.5913C88.3411 35.8208 89.1683 26.6685 88.0881 19.1474C87.873 17.6504 86.086 15.2855 84.7771 14.6909C83.7702 14.2335 82.2802 13.8185 81.1071 13.7832C77.1286 13.6633 72.644 13.6909 68.668 13.7894C65.3766 13.8709 59.0758 13.4471 56.1111 13.8242C53.9746 14.1227 52.1517 15.0897 50.8437 16.8482C49.9327 18.0729 49.4855 19.5967 49.0582 21.0447C47.6391 25.8536 39.2585 60.3897 39.5668 62.549C39.7924 64.13 40.9006 65.8147 41.9932 66.9461C55.1127 64.2218 62.0064 64.0655 75.2682 66.6626C73.5702 59.4793 71.8288 52.3063 70.0441 45.144C69.2573 41.9621 67.2973 34.7149 67.1142 31.7119ZM124.169 111.595C128.683 110.895 137.238 111.315 142.063 111.184C143.867 111.177 145.72 111.193 147.52 111.16C147.292 104.309 147.216 97.4535 147.292 90.5989C147.299 86.5947 147.514 82.3881 146.999 78.4319C146.911 77.7572 146.398 76.8173 145.993 76.2734C144.37 74.095 141.681 73.1522 139.01 73.1916C130.302 73.3202 121.568 73.0685 112.862 73.2746C112.757 73.2772 112.622 73.3023 112.519 73.3196C108.614 73.8543 105.971 77.4233 106.468 81.3402C106.756 83.6097 108.597 86.101 109.993 87.8444C115.802 95.0992 120.643 102.989 124.169 111.595ZM254.276 81.0678C253.507 81.1821 252.601 81.2142 252.068 81.7425C251.174 83.7866 250.441 93.2353 249.919 96.2949L253.091 96.259L256.414 96.2643C256.933 91.1834 257.217 86.0813 257.266 80.9742L254.276 81.0678ZM182.534 101.108C181.476 101.282 181.674 101.084 181.069 101.755C180.815 102.733 180.953 103.715 181.029 104.724L218.664 104.736C224.848 104.734 231.431 104.605 237.562 104.785C239.013 104.408 239.073 103.139 238.689 101.834C237.721 100.717 233.229 100.99 231.587 101.012C215.276 101.235 198.824 100.723 182.534 101.108ZM238.531 96.0176C238.762 94.8881 239.111 93.5364 238.505 92.5228C237.486 92.0022 186.561 92.1367 181.242 92.2522C180.975 93.1665 180.57 95.7289 182.006 95.766C200.698 96.249 219.856 95.7476 238.531 96.0176ZM188.877 110.122C187.166 110.128 182.128 109.87 181.04 110.89C180.853 111.694 180.882 111.794 181.197 112.562C181.945 113.379 182.984 113.652 184.066 113.605C195.16 113.118 206.265 113.652 217.373 113.461C221.799 113.384 226.553 113.089 230.934 113.501C232.652 113.513 240.69 114.373 238.339 110.675C236.893 109.847 221.255 110.166 218.246 110.168L188.877 110.122Z"/><path d="M55.5061 109.779C69.9675 108.184 82.9896 118.6 84.609 133.059C86.2284 147.518 75.8332 160.557 61.3771 162.2C46.8875 163.847 33.8116 153.422 32.1885 138.93C30.5654 124.438 41.0112 111.379 55.5061 109.779Z"/><path d="M208.903 49.0459C212.547 48.8679 216.999 48.9349 220.759 49.1048C224.241 49.2621 222.732 59.1418 223.024 61.5808C223.254 63.4954 223.122 67.2494 221.433 68.3657C218.284 68.8465 214.041 68.4328 210.798 68.5167C208.726 68.6636 207.691 67.4008 207.768 65.353C207.892 62.0629 206.555 51.0681 208.903 49.0459Z"/><path d="M209.825 15.575C216.333 17.4457 218.125 29.7325 217.679 35.399C217.476 37.9774 218.28 44.837 217.067 46.7698C216.161 46.7776 215.018 46.9157 214.315 46.412C211.648 42.8407 218.008 27.6596 208.507 18.6582C208.939 17.2568 209.069 16.8321 209.825 15.575Z"/><path d="M214.056 129.361C214.629 130.113 214.967 130.647 215.794 131.137C217.245 131.149 216.325 128.902 217.818 127.925C218.874 127.234 221.562 126.677 222.815 126.815C224.356 126.984 224.243 128.079 225.033 129.085C225.973 128.936 226.118 127.66 227.114 126.776C228.213 125.802 232.131 126.778 234.059 126.935C234.009 127.816 233.887 128.74 234.16 129.57L234.599 129.772C235.479 129.486 235.802 128.748 236.659 128.032C238.472 127.876 241.81 129.368 243.317 130.356C243.661 131.375 242.731 131.35 242.954 132.87C243.95 133.502 244.714 132.367 245.927 132.301C247.007 132.241 248.766 133.526 249.565 134.221C252.121 136.444 250.587 137.553 250.67 138.979C251.595 139.419 252.14 138.747 253.389 139.153C255.339 139.786 256.647 142.741 257.552 144.496C257.01 145.117 255.867 145.756 255.981 146.614C259.623 147.677 259.77 148.495 260.891 152.017C261.628 154.331 258.399 153.94 259.074 156.054C260.889 156.993 260.948 156.708 262 158.474L262 163.19C261.242 164.1 260.063 164.362 258.922 164.754C258.924 165.708 260.344 165.907 260.824 167.331C260.445 170.576 260.012 173.851 256.207 173.828C255.923 175.055 256.777 175.181 256.832 176.536C256.913 178.544 254.633 180.965 253.365 182.431C252.531 182.019 250.938 181.521 249.992 181.198C250.443 182.209 251.084 183.277 250.867 184.358C250.423 186.576 247.121 188.157 245.2 189.317C244.825 188.536 244.49 187.595 243.776 187.148C242.272 187.704 243.694 189.071 243.065 190.243C241.695 191.717 238.326 192.597 236.377 193.021C235.186 192.242 236.332 191.067 234.615 190.8C233.933 191.308 233.995 192.102 233.724 193.164C232.483 194.492 228.08 194.399 226.266 194.161C226.087 194.137 225.893 191.963 225.771 191.518L225.371 191.4C224.527 192.058 224.027 193.204 223.511 194.168C221.725 193.834 218.225 193.239 216.768 192.432C216.259 191.565 216.515 190.515 216.597 189.398L216.343 189.122C215.541 189.355 214.485 190.491 213.613 191.164C212.161 190.573 209.779 189.572 208.619 188.527C206.816 186.902 208.494 186.193 208.416 185.121C207.159 184.527 206.799 185.525 205.324 185.234C203.334 184.843 201.546 182.041 200.457 180.468C200.992 179.741 201.64 178.98 201.88 178.123C200.805 177.245 199.952 178.49 198.428 177.596C196.167 174.914 195.42 172.651 197.487 169.666C197.331 168.869 195.955 169.315 195.069 168.369C193.72 166.929 193.888 164.646 193.813 162.862C193.705 160.273 195.067 161.82 196.072 160.809C196.286 159.193 194.732 160.132 193.974 158.131C193.357 156.504 194.313 153.157 195.058 151.679C195.989 151.159 195.968 151.619 197.338 151.559L197.667 151.116C197.637 149.797 197.265 150.624 196.256 149.067C195.94 147.706 196.587 146.014 197.221 144.793C198.706 141.933 200.586 143.013 201.903 142.597C201.856 141.834 201.109 140.994 200.633 140.342C201.782 138.007 203.641 136.337 205.598 134.684C206.396 135.255 207.131 135.939 208.026 135.973C208.754 134.797 208.02 133.646 208.318 132.894C208.898 131.429 212.679 129.956 214.056 129.361ZM228.878 181.187C240.538 180.525 249.452 170.531 248.78 158.872C248.109 147.212 238.107 138.308 226.448 138.989C214.803 139.67 205.912 149.657 206.583 161.302C207.253 172.947 217.232 181.847 228.878 181.187Z"/><path d="M226.132 143.078C235.581 142.232 243.908 149.252 244.671 158.708C245.434 168.164 238.341 176.429 228.879 177.109C219.533 177.781 211.392 170.795 210.638 161.455C209.884 152.115 216.799 143.914 226.132 143.078Z"/></svg>
