<svg viewBox="0 0 85 85" fill="currentColor" xmlns="http://www.w3.org/2000/svg">
  <path fill-rule="evenodd" clip-rule="evenodd"
        d="M42.5 0C65.9334 0 85 19.0666 85 42.5C85 65.9334 65.9334 85 42.5 85C19.0666 85 0 65.9334 0 42.5C0 19.0666 19.0666 0 42.5 0ZM42.5 8.5C23.6857 8.5 8.5 23.6857 8.5 42.5C8.5 61.3143 23.6857 76.5 42.5 76.5C61.3143 76.5 76.5 61.3143 76.5 42.5C76.5 23.6857 61.3143 8.5 42.5 8.5ZM42.6821 22.9994C45.8968 27.1796 46.9814 32.322 45.9513 36.0764C45.8227 36.6941 50.3537 41.5115 59.5442 50.5286C62.5494 53.5338 62.5494 56.539 59.5442 59.5442C56.7158 62.3727 53.8874 62.539 51.059 60.0434L36.1436 45.884C32.389 46.9143 27.2467 45.8297 23.0667 42.6148C20.0009 38.5836 18.9434 33.3144 19.7975 29.5379L26.3359 36.0764L32.8744 32.8071L36.1436 26.2687L29.6052 19.7302C33.3816 18.8762 38.651 19.9336 42.6821 22.9994Z"/>
</svg>
