<svg xmlns="http://www.w3.org/2000/svg" xmlns:xlink="http://www.w3.org/1999/xlink" viewBox="0 0 400 313" fill="currentColor"><path d="M200.208 58.8546C207.937 58.5057 218.709 58.9926 226.795 58.9947L287.172 59.0028L321.48 58.9982C326.542 58.9898 331.664 58.8501 336.72 59.019C358.329 59.7406 356.031 76.4664 356.021 91.9652L356.017 118.746L356.019 207.098L355.998 223.802C355.981 230.24 355.414 236.62 357.307 242.746C358.933 248.854 363.693 253.034 367.462 257.797C372.985 264.777 379.017 271.541 384.644 278.394C390.429 285.441 386.745 295.441 379.885 300.174C376.329 302.627 372.944 303.575 368.63 303.561C357.351 303.878 346.044 303.752 334.755 303.734L278.212 303.605L151.545 303.756L87.0639 303.684L64.1163 303.821C51.203 303.826 44.123 305.17 35.9909 293.153C34.7955 291.183 34.2159 289.704 33.9255 287.394C32.8684 278.985 43.5571 272.397 49.0326 266.025C61.5882 251.411 66.2977 236.853 66.4492 217.607C66.4913 212.26 65.6258 207.305 65.2269 201.984C64.8665 197.176 64.8088 189.015 65.2992 184.131C65.3738 183.388 66.1851 182.033 66.6733 181.467C68.1724 179.725 70.8245 178.512 73.1708 178.52C76.8929 178.532 82.0995 177.843 85.0638 180.539C86.047 181.433 86.8206 182.868 86.9818 184.115C87.3407 186.889 87.154 190.105 87.1871 192.916C87.2707 200.031 86.867 207.405 87.2263 214.495C87.4243 218.402 87.3979 225.247 90.4816 227.911C92.3629 229.537 95.394 229.803 97.7763 229.875C104.282 230.073 110.853 230.002 117.364 230.001L155.073 229.784L231.621 229.661L297.018 230.006C306.994 230.003 317.16 230.166 327.12 229.693C328.464 229.701 331.296 228.345 332.029 227.264C334.995 222.891 334.274 215.289 334.309 210.265C334.373 204.196 334.394 198.126 334.372 192.057L334.359 140.848L334.278 104.683C334.296 97.6053 334.926 89.1266 333.897 82.1826C333.462 79.2436 332.137 76.9355 329.276 75.9027C323.965 73.9859 304.677 74.7991 298.102 74.7973L228.204 74.7612C222.105 74.7336 216.007 74.7436 209.909 74.7912C206.506 74.8159 197.46 75.4726 194.719 73.5217C192.009 71.5934 192.05 63.419 194.327 60.9804C195.992 59.1971 197.874 59.003 200.208 58.8546ZM161.87 280.92C172.25 280.579 183.572 280.778 194.041 280.756L250.258 280.823C253.551 280.826 256.843 280.891 260.133 281.017C258.332 278.287 256.146 274.145 252.468 273.562C246.741 272.654 239.781 273.023 233.918 273.073L208.902 273.156C201.389 273.176 193.875 273.149 186.362 273.073C182.37 273.031 176.194 272.789 172.321 273.109C165.97 273.635 164.98 275.902 161.87 280.92ZM237.405 293.895C237.221 293.502 237.243 293.379 236.831 293.234C235.686 292.831 189.13 292.811 184.321 293.108C184.737 294.135 185.729 294.007 186.792 293.996C197.542 293.886 208.3 293.944 219.052 293.956L231.014 293.974C232.649 293.976 235.927 294.066 237.405 293.895Z"/><path d="M184.321 293.108C189.13 292.811 235.686 292.831 236.831 293.234C237.243 293.379 237.221 293.502 237.405 293.895C235.927 294.066 232.649 293.976 231.014 293.974L219.052 293.956C208.3 293.944 197.542 293.886 186.792 293.996C185.729 294.007 184.737 294.135 184.321 293.108Z"/><path d="M8.77527 4.86572C28.4718 4.45276 48.5327 4.81935 68.2519 4.87978C69.4124 4.88333 71.748 5.28692 72.6945 5.83715C73.2822 6.17879 74.178 8.52002 74.0574 9.24347C74.1983 13.5522 74.1631 17.8782 74.1696 22.1904L74.1908 46.0567L74.1837 62.6035C74.1766 67.1754 75.628 74.9274 69.3123 75.1432C59.9064 75.6653 48.8474 75.0105 39.3204 75.0658L18.6057 75.2672C15.132 75.2761 11.522 75.4184 8.07279 75.0638C4.52751 74.6994 3.87573 72.8593 3.85955 69.6899C3.82643 63.1989 3.86873 56.7215 3.86857 50.2367L3.95516 7.51099C5.6668 5.28322 5.9444 4.94052 8.77527 4.86572Z"/><path d="M44.0353 109.584C57.0295 108.929 70.7978 110.197 83.888 109.437C87.3627 109.235 90.5082 109.462 93.7519 110.821C94.1991 111.46 94.9292 112.6 94.9667 113.375C95.1053 116.238 95.0768 119.272 95.0875 122.132L95.0822 140.405C95.0694 144.555 95.0581 148.702 95.0607 152.852C95.063 156.497 95.3407 160.012 94.8396 163.624C93.3301 165.637 92.4933 166.253 90.1162 166.966C87.7715 167.076 85.4117 167.1 83.0568 167.072C69.9738 166.918 56.8425 167.326 43.7742 166.928C42.6642 166.894 41.0901 166.316 40.1746 165.676C39.0912 164.931 38.3533 163.781 38.1275 162.486C37.8692 160.912 37.9592 157.066 37.9628 155.374L37.9998 142.347L37.9888 125.278C37.9854 122.028 37.9268 118.821 38.0916 115.573C38.3143 111.183 40.0382 110.24 44.0353 109.584Z"/><path d="M90.935 53.3397C91.1429 53.3152 91.351 53.2928 91.5593 53.2725C93.7456 53.0611 98.3777 53.3539 101.373 53.5605C108.664 54.0636 119.971 52.3544 126.231 56.5458C127.488 57.6452 128.652 60.7067 128.777 62.222C129.486 70.7996 129.258 79.4388 130.076 88.0367C130.416 91.6053 130.139 97.1258 127.419 99.6163C125.434 101.433 124.045 102.001 121.312 102.074C115.67 102.358 110.578 101.623 104.991 101.374C100.564 101.208 96.1518 101.513 91.7381 100.997C86.9909 100.442 83.548 98.7827 82.7856 93.662C81.7126 86.4549 82.1553 79.2515 81.879 71.9904C81.6775 66.6941 79.9749 61.0569 83.2957 56.2935C84.9373 53.9999 88.3361 53.6878 90.935 53.3397Z"/><path d="M155.813 67.6225C163.092 67.523 170.728 66.9041 177.611 68.9444C179.682 71.0703 180.284 73.8437 180.289 76.744C180.299 83.5113 181.207 92.641 178.87 98.9433C176.338 101.292 174.852 101.394 171.533 101.706C164.556 101.885 153.905 102.624 148.221 99.0987C145.864 92.7376 146.755 82.7862 146.742 75.836C146.737 73.1064 147.336 70.53 149.42 68.6659C151.897 68.2884 153.106 67.7386 155.813 67.6225Z"/><path d="M144.667 108.095C149.494 107.834 160.75 107.449 164.774 110.175C168.151 113.644 167.231 122.687 167.221 126.985C167.198 137.341 167.588 141.069 156.725 141.805C155.131 141.892 152.7 141.849 151.324 141.897C133.916 142.577 133.211 139.665 133.79 123.355C134.192 112.024 132.164 109.381 144.667 108.095Z"/><path d="M99.1619 9.35553C123.075 8.07037 121.54 10.3005 121.131 31.9305C120.964 40.792 119.519 42.1807 110.779 42.7506C105.805 42.8176 94.3698 43.6649 90.5205 40.716C89.1189 39.6422 87.9325 35.1343 88.0237 33.0854C88.2876 27.153 86.705 16.2206 90.2738 11.4137C91.6611 9.54522 96.9351 9.49611 99.1619 9.35553Z"/><path d="M111.551 144.595C112.185 144.453 114.205 144.555 114.976 144.567C120.25 144.683 125.715 144.338 130.954 144.84C136.396 145.361 137.65 149.011 137.61 153.876C137.505 159.428 137.93 165.13 137.392 170.656C136.941 175.281 134.649 176.557 130.611 177.438L130.383 177.48C126.033 178.241 111.053 178.604 107.533 176.013C102.774 172.509 105.048 156.24 105.086 150.536C105.109 146.926 108.097 145.03 111.551 144.595Z"/><path d="M167.744 153.366C171.628 153.419 185.42 152.783 187.96 154.509C188.641 154.971 188.896 155.527 189.045 156.313C189.491 158.655 189.376 177.097 188.933 179.396C188.761 180.294 188.282 180.986 187.772 181.728C185.519 182.46 183.859 182.542 181.548 182.67C176.16 182.758 166.414 183.255 161.664 181.682C159.069 178.204 160.311 171.817 160.145 167.627C160.022 164.511 160.089 161.174 160.277 158.057C160.574 153.105 163.81 153.499 167.744 153.366Z"/><path d="M194.406 119.598C197.803 119.411 214.19 118.23 214.913 122.545C216.002 129.042 217.069 140.642 214.771 146.761C212.984 147.247 211.822 147.627 209.959 147.719C204.299 147.809 193.871 148.628 189.354 145.694C189.085 145.256 188.337 144.027 188.274 143.466C187.565 137.204 187.677 129.832 188.156 123.527C188.2 122.937 188.94 121.703 189.221 121.231C191.326 119.879 191.946 119.834 194.406 119.598Z"/><path d="M211.76 157.364C216.032 157.062 226.679 156.612 230.366 158.7C231.243 159.196 232.241 161.303 232.391 162.499C233.063 167.867 233.851 178.192 231.273 182.942C230.652 184.087 227.24 184.86 225.993 185.026C220.658 185.323 213.076 185.658 208.076 184.315C204.028 183.227 204.932 175.265 204.89 171.973C204.841 168.153 204.304 162.734 205.867 159.335C207.737 157.769 209.412 157.633 211.76 157.364Z"/></svg>
