<svg viewBox="0 0 85 85" fill="currentColor" xmlns="http://www.w3.org/2000/svg">
<path d="M5.68976 5.69007C12.0919 -0.712055 21.7315 -1.25421 31.4014 1.80086C34.9787 2.93102 38.7013 4.58465 42.4996 6.74267C46.2979 4.58442 50.021 2.9306 53.5988 1.80029C63.2682 -1.25478 72.9078 -0.712576 79.3099 5.68955C85.7121 12.0916 86.2544 21.7313 83.1996 31.4011C82.069 34.9787 80.4155 38.7018 78.257 42.5001C80.4155 46.2984 82.069 50.0214 83.1996 53.5987C86.2544 63.2687 85.7121 72.9083 79.3099 79.3104C72.9078 85.7125 63.2682 86.2549 53.5988 83.1996C50.021 82.0695 46.2979 80.4154 42.4996 78.2574C38.7013 80.4154 34.9787 82.069 31.4014 83.1991C21.7315 86.2544 12.0919 85.7121 5.68976 79.3099C-0.712364 72.9078 -1.25452 63.2682 1.80055 53.5983C2.93071 50.021 4.58439 46.2984 6.74246 42.5001C4.58439 38.7018 2.93071 34.9792 1.80055 31.4017C-1.25452 21.7318 -0.712364 12.0922 5.68976 5.69007ZM12.735 51.5339C11.9592 53.2315 11.3237 54.8737 10.8258 56.4496C8.28715 64.4849 9.54386 69.7787 12.3825 72.6172C15.2212 75.4558 20.5146 76.7127 28.55 74.1738C30.1258 73.6759 31.7683 73.0408 33.4657 72.2647C29.7832 69.473 26.0818 66.2388 22.4217 62.5787C18.7614 58.9181 15.527 55.2168 12.735 51.5339ZM72.2647 51.5335C69.4725 55.2163 66.2383 58.9181 62.5782 62.5782C58.9181 66.2383 55.2163 69.473 51.533 72.2651C53.231 73.0408 54.8737 73.6764 56.4501 74.1747C64.4854 76.7132 69.7787 75.4563 72.6172 72.6177C75.4563 69.7792 76.7128 64.4859 74.1742 56.4505C73.6764 54.8741 73.0408 53.2315 72.2647 51.5335ZM42.4991 35.4013C38.5787 35.4013 35.4004 38.5797 35.4004 42.5001C35.4004 46.4205 38.5787 49.5988 42.4991 49.5988C46.4196 49.5988 49.5979 46.4205 49.5979 42.5001C49.5979 38.5797 46.4196 35.4013 42.4991 35.4013ZM56.4501 10.8256C54.8737 11.3235 53.231 11.9592 51.533 12.7351C55.2163 15.5272 58.9181 18.7616 62.5782 22.422C66.2383 26.0822 69.4725 29.7837 72.2647 33.4662C73.0408 31.7687 73.6764 30.1259 74.1742 28.5498C76.7128 20.5143 75.4563 15.2209 72.6172 12.3823C69.7787 9.54365 64.4854 8.28689 56.4501 10.8256ZM12.3825 12.3829C9.54386 15.2215 8.28715 20.5149 10.8258 28.5503C11.3237 30.1262 11.9592 31.7688 12.735 33.4662C15.527 29.7834 18.7614 26.0818 22.4217 22.4214C26.0818 18.7613 29.7832 15.5271 33.4657 12.7352C31.7683 11.9595 30.1258 11.324 28.55 10.8261C20.5146 8.28746 15.2212 9.54417 12.3825 12.3829Z"/>
</svg>
