<svg viewBox="0 0 85 85" fill="currentColor" xmlns="http://www.w3.org/2000/svg">
<path d="M79.686 37.1887H69.0624C66.1259 37.1887 63.7499 39.5647 63.7499 42.5012C63.7499 45.4376 66.1259 47.8136 69.0624 47.8136H79.686C82.6225 47.8136 84.9985 45.4376 84.9985 42.5012C84.9985 39.5647 82.6225 37.1887 79.686 37.1887Z"/>
<path d="M66.0223 25.8532L75.2249 20.5407C77.7669 19.0731 78.6381 15.8246 77.1652 13.2825C75.7017 10.7405 72.4544 9.86926 69.9137 11.3368L60.7098 16.6493C58.1678 18.1169 57.2966 21.3655 58.7695 23.9062C60.233 26.4495 63.4803 27.3208 66.0223 25.8532Z"/>
<path d="M75.2249 64.4603L66.0223 59.1492C63.4803 57.6816 60.2384 58.5528 58.7695 61.0935C57.3019 63.6355 58.1678 66.8828 60.7098 68.3517L69.9137 73.6642C72.4544 75.1318 75.7017 74.2605 77.1706 71.7185C78.6395 69.1765 77.7669 65.9292 75.2249 64.4603Z"/>
<path d="M49.8458 0.408045C47.8643 -0.42203 45.5812 0.0401561 44.0565 1.55953L24.3632 21.2516H5.31395C2.37747 21.2516 0.00146484 23.6276 0.00146484 26.564V58.4389C0.00146484 61.3741 2.37747 63.7501 5.31395 63.7501H24.3632L44.0565 83.4434C45.0739 84.4608 46.4325 85 47.8125 85C48.4978 85 49.1871 84.8698 49.8458 84.5949C51.8327 83.7755 53.1249 81.8351 53.1249 79.6875V5.31412C53.1249 3.16655 51.8327 1.2275 49.8458 0.408045Z"/>
</svg>
